<svg xmlns="http://www.w3.org/2000/svg" viewBox="0 0 58 58"><g fill="#ecd361"><path d="M55 16a1 1 0 1 0 0 2h3v-2h-3zM54 20a1 1 0 0 0 1 1h3v-2h-3a1 1 0 0 0-1 1zM54 23a1 1 0 0 0 1 1h3v-2h-3a1 1 0 0 0-1 1zM54 26a1 1 0 0 0 1 1h3v-2h-3a1 1 0 0 0-1 1zM54 29a1 1 0 0 0 1 1h3v-2h-3a1 1 0 0 0-1 1zM54 32a1 1 0 0 0 1 1h3v-2h-3a1 1 0 0 0-1 1zM54 35a1 1 0 0 0 1 1h3v-2h-3a1 1 0 0 0-1 1zM54 38a1 1 0 0 0 1 1h3v-2h-3a1 1 0 0 0-1 1zM54 41a1 1 0 0 0 1 1h3v-2h-3a1 1 0 0 0-1 1z"/></g><path d="M55 16h3V4.499A4.499 4.499 0 0 0 53.501 0H46a4 4 0 0 1-8 0H4.499A4.499 4.499 0 0 0 0 4.499V10h4v4H0v39.501A4.499 4.499 0 0 0 4.499 58H38a4 4 0 0 1 8 0h7.501A4.499 4.499 0 0 0 58 53.501V42h-3a1 1 0 1 1 0-2h3v-1h-3a1 1 0 1 1 0-2h3v-1h-3a1 1 0 1 1 0-2h3v-1h-3a1 1 0 1 1 0-2h3v-1h-3a1 1 0 1 1 0-2h3v-1h-3a1 1 0 1 1 0-2h3v-1h-3a1 1 0 1 1 0-2h3v-1h-3a1 1 0 1 1 0-2h3v-1h-3a1 1 0 1 1 0-2zM4 55a1 1 0 1 1 0-2 1 1 0 0 1 0 2zM4 5a1 1 0 1 1 0-2 1 1 0 0 1 0 2zm51 49a1 1 0 1 1-2 0 1 1 0 0 1 2 0zM53 4a1 1 0 1 1 2 0 1 1 0 0 1-2 0z" fill="#5e5e60"/><path d="M15 39.643V18.357A3.357 3.357 0 0 1 18.357 15h21.285A3.357 3.357 0 0 1 43 18.357v21.285A3.357 3.357 0 0 1 39.643 43H18.357A3.357 3.357 0 0 1 15 39.643z" fill="#38454f"/><g fill="#ecd361"><path d="M11 22H8a1 1 0 1 0 0 2h3a1 1 0 1 0 0-2zM11 34H8a1 1 0 1 0 0 2h3a1 1 0 1 0 0-2zM11 30H8a1 1 0 1 0 0 2h3a1 1 0 1 0 0-2zM11 26H8a1 1 0 1 0 0 2h3a1 1 0 1 0 0-2zM47 24h3a1 1 0 1 0 0-2h-3a1 1 0 1 0 0 2zM50 34h-3a1 1 0 1 0 0 2h3a1 1 0 1 0 0-2zM50 30h-3a1 1 0 1 0 0 2h3a1 1 0 1 0 0-2zM50 26h-3a1 1 0 1 0 0 2h3a1 1 0 1 0 0-2zM35 7a1 1 0 0 0-1 1v3a1 1 0 1 0 2 0V8a1 1 0 0 0-1-1zM23 7a1 1 0 0 0-1 1v3a1 1 0 1 0 2 0V8a1 1 0 0 0-1-1zM27 7a1 1 0 0 0-1 1v3a1 1 0 1 0 2 0V8a1 1 0 0 0-1-1zM31 7a1 1 0 0 0-1 1v3a1 1 0 1 0 2 0V8a1 1 0 0 0-1-1zM35 46a1 1 0 0 0-1 1v3a1 1 0 1 0 2 0v-3a1 1 0 0 0-1-1zM23 46a1 1 0 0 0-1 1v3a1 1 0 1 0 2 0v-3a1 1 0 0 0-1-1zM27 46a1 1 0 0 0-1 1v3a1 1 0 1 0 2 0v-3a1 1 0 0 0-1-1zM31 46a1 1 0 0 0-1 1v3a1 1 0 1 0 2 0v-3a1 1 0 0 0-1-1z"/></g><circle cx="3" cy="36" r="1" fill="#ecd361"/><circle cx="3" cy="40" r="1" fill="#ecd361"/><circle cx="3" cy="44" r="1" fill="#ecd361"/><circle cx="3" cy="48" r="1" fill="#ecd361"/><g fill="#546a79"><circle cx="37" cy="38" r="1"/><circle cx="33" cy="38" r="1"/><circle cx="35" cy="35" r="1"/><circle cx="29" cy="38" r="1"/><circle cx="25" cy="38" r="1"/><circle cx="31" cy="35" r="1"/><circle cx="27" cy="35" r="1"/><circle cx="21" cy="38" r="1"/><circle cx="23" cy="35" r="1"/><circle cx="37" cy="32" r="1"/><circle cx="33" cy="32" r="1"/><circle cx="35" cy="29" r="1"/><circle cx="29" cy="32" r="1"/><circle cx="25" cy="32" r="1"/><circle cx="31" cy="29" r="1"/><circle cx="27" cy="29" r="1"/><circle cx="21" cy="32" r="1"/><circle cx="23" cy="29" r="1"/><circle cx="37" cy="26" r="1"/><circle cx="33" cy="26" r="1"/><circle cx="35" cy="23" r="1"/><circle cx="29" cy="26" r="1"/><circle cx="25" cy="26" r="1"/><circle cx="31" cy="23" r="1"/><circle cx="27" cy="23" r="1"/><circle cx="21" cy="26" r="1"/><circle cx="23" cy="23" r="1"/><circle cx="37" cy="20" r="1"/><circle cx="33" cy="20" r="1"/><circle cx="29" cy="20" r="1"/><circle cx="25" cy="20" r="1"/><circle cx="21" cy="20" r="1"/></g><circle cx="10" cy="55" r="1" fill="#ecd361"/><circle cx="14" cy="55" r="1" fill="#ecd361"/><circle cx="18" cy="55" r="1" fill="#ecd361"/><circle cx="22" cy="55" r="1" fill="#ecd361"/><path fill="#cbd4d8" d="M21 11h16v4H21zM21 43h16v4H21zM43 21h4v16h-4zM11 21h4v16h-4z"/></svg>