<svg xmlns="http://www.w3.org/2000/svg" viewBox="0 0 512 512"><path d="M497.795 165.937l-5.601 3.125-59.441 33.169-13.073-23.429 56.243-31.382c.408-.23.794-.481 1.16-.763 3.772-2.874 4.974-8.214 2.602-12.478l-34.642-62.085c-2.602-4.671-8.559-6.354-13.23-3.752l-5.497 3.062-50.746 28.31-13.073-23.429 48.761-27.202 16.281-9.081c13.324-7.43 30.295-2.613 37.736 10.711l43.232 77.499c7.43 13.313 2.612 30.295-10.712 37.725z" fill="#00aa95"/><g fill="#087"><path d="M426.316 71.404l-50.746 28.31-13.074-23.43 48.761-27.201zM492.194 169.061l-59.441 33.169-13.073-23.429 56.243-31.382c.408-.23.794-.481 1.16-.763l15.111 22.405z"/></g><path d="M328.011 282.937L166.42 230.561l-3.229-17.828-.941-5.194-1.505-8.329c1.244 1.139 101.043 25.77 145.153 36.617l7.211 15.362 2.675 5.695 12.227 26.053z" fill="#00ddc2"/><path d="M313.109 251.189l-150.859-43.65-1.505-8.329c1.244 1.139 101.043 25.77 145.153 36.617l7.211 15.362z" fill="#00eed1"/><path d="M492.476 234.615l-155.07 86.507c-4.995 2.79-11.265 1.139-13.941-3.647l-98.378-209.631c-2.675-4.797-1.306-10.701 3.041-13.125l9.144-5.1 10.022-5.591L357.22 22.696c4.347-2.424 10.095-.491 12.77 4.305L486.028 204.54l4.828 7.388 5.831 8.914c2.676 4.786.774 10.983-4.211 13.773z" fill="#00ccb3"/><path d="M486.028 204.54l-134.693 75.137c-4.985 2.78-11.255 1.139-13.93-3.658L247.293 84.028l109.926-61.332c4.347-2.424 10.095-.491 12.77 4.305L486.028 204.54z" fill="#00ddc2"/><path d="M196.579 211.803a38.308 38.308 0 0 1-.334 3.595l-.982 7.033c-2.968 21.339-22.687 36.22-44.027 33.242l-12.415-1.724c-6.479-.909-10.994-6.897-10.095-13.376l1.944-13.951.92-6.552 5.633-40.338c.899-6.479 6.887-11.004 13.366-10.095l12.415 1.735c17.828 2.487 31.142 16.647 33.294 33.681.291 2.204.396 4.461.281 6.75z" fill="#00aa95"/><path d="M196.579 211.803c-9.311 12.269-24.819 19.281-41.153 17.002l-13.993-1.954a13.33 13.33 0 0 1-9.844-6.782l5.633-40.338c.899-6.479 6.887-11.004 13.366-10.095l12.415 1.735c17.828 2.487 31.142 16.647 33.294 33.681a37.18 37.18 0 0 1 .282 6.751z" fill="#00ccb3"/><path d="M71.239 379.706c-48.35 7.01-61.101-40.888-57.946-89.663.251-3.668 3.835-6.155 7.357-5.089 54.979 16.789 87.891 49.763 50.589 94.752z" fill="#91cc04"/><path d="M60.789 361.596c-15.888 2.302-30.334-.926-40.965-12.958-6.617-17.71-7.761-39.579-6.531-58.594.251-3.668 3.835-6.155 7.357-5.089 18.865 5.76 41.684 15.969 54.968 30.535 4.522 16.691-3.881 32.9-14.829 46.106z" fill="#9cdd05"/><path d="M91.084 461.207c-.23.021-.46.031-.679.031-4.023 0-7.451-3.083-7.796-7.169-1.379-16.051-5.925-41.55-19.594-73.684-3.773-8.883-8.245-18.267-13.543-28.111l-30.661-6.5c-1.839-5.465-3.135-11.203-4.044-16.877l24.213 5.131c-7.378-12.08-15.978-24.715-26-37.83.084-2.31.199-4.379.314-6.155.251-3.668 3.835-6.155 7.357-5.089 1.369.418 2.916.909 4.598 1.474 10.293 13.449 19.155 26.449 26.773 38.906l4.734-24.757c4.953 2.968 9.75 6.343 14.014 10.147l-6.772 35.499a358.16 358.16 0 0 1 12.687 26.303c15.08 34.945 20.054 62.785 21.538 80.205.364 4.317-2.834 8.11-7.139 8.476z" fill="#91cc04"/><path d="M173.452 499.026c0 3.187-1.306 6.092-3.407 8.193s-5.006 3.407-8.193 3.407H11.6c-6.375 0-11.6-5.225-11.6-11.6 0-19.929 8.151-38.049 21.287-51.185 13.146-13.136 31.267-21.287 51.196-21.287h28.487c.188 0 .376 0 .564.01 39.617.304 71.918 32.793 71.918 72.462z" fill="#aa6100"/><path d="M173.452 499.026c0 3.187-1.306 6.092-3.407 8.193s-5.006 3.407-8.193 3.407H41.205c-6.375 0-11.589-5.225-11.589-11.6 0-19.929 8.151-38.049 21.287-51.185 13.01-13.01 30.922-21.13 50.631-21.277 39.617.304 71.918 32.793 71.918 72.462z" fill="#cc7400"/><g fill="#00ccb3"><path d="M81.718 197.464c14.62-7.38 26.283-7.773 26.574-7.781a7.837 7.837 0 0 0 7.708-7.931c-.052-4.328-3.612-7.781-7.932-7.743-.613.007-15.24.286-33.414 9.462a7.837 7.837 0 0 0 7.064 13.993zM58.539 203.353a7.836 7.836 0 0 0-11.083.059c-7.518 7.596-14.233 16.563-19.96 26.648a7.838 7.838 0 0 0 2.946 10.685c3.785 2.15 8.561.797 10.685-2.946 5.045-8.886 10.923-16.745 17.471-23.361a7.84 7.84 0 0 0-.059-11.085zM75.334 246.713a7.835 7.835 0 0 0-10.349 3.971c-3.508 7.879-6.315 16.225-8.341 24.807-1.16 4.915 2.57 9.64 7.635 9.64a7.84 7.84 0 0 0 7.621-6.038c1.803-7.632 4.293-15.044 7.405-22.032a7.836 7.836 0 0 0-3.971-10.348zM117.611 201.403a7.84 7.84 0 0 0-10.792-2.531c-.494.306-12.244 7.684-24.654 23.367a7.836 7.836 0 0 0 1.283 11.009 7.836 7.836 0 0 0 11.009-1.283c10.579-13.368 20.523-19.708 20.643-19.783a7.838 7.838 0 0 0 2.511-10.779z"/></g><path d="M329.38 111.94l-10.694 5.966c-4.69 2.617-10.614.935-13.231-3.755l-51.518-92.346c-2.617-4.69-.935-10.614 3.755-13.231l10.694-5.966c4.69-2.617 10.614-.935 13.231 3.755l51.518 92.346c2.616 4.69.935 10.614-3.755 13.231z" fill="#44ffe8"/><circle cx="314.655" cy="98.117" r="6.343" fill="#00aa95"/></svg>