<svg xmlns="http://www.w3.org/2000/svg" viewBox="0 0 512 512"><path d="M499.867 92.209h-24.265l-18.199 24.265-18.199-24.265V43.678c0-6.673-5.46-12.133-12.133-12.133H12.133C5.46 31.545 0 37.005 0 43.678v388.246c0 26.692 21.839 48.531 48.531 48.531h414.938c26.692 0 48.531-21.839 48.531-48.531V104.341c0-6.673-5.46-12.132-12.133-12.132z" fill="#c2e7ff"/><path d="M475.602 92.209v321.517c0 10.046-8.153 18.199-18.199 18.199s-18.199-8.153-18.199-18.199V92.209h36.398z" fill="#4eb9ff"/><g fill="#174461"><path d="M189.27 419.791H72.796c-6.701 0-12.133-5.432-12.133-12.133s5.432-12.133 12.133-12.133H189.27c6.701 0 12.133 5.432 12.133 12.133s-5.432 12.133-12.133 12.133zM366.408 419.791H249.934c-6.701 0-12.133-5.432-12.133-12.133s5.432-12.133 12.133-12.133h116.474c6.7 0 12.133 5.432 12.133 12.133s-5.434 12.133-12.133 12.133zM366.408 116.474H72.796c-6.701 0-12.133-5.432-12.133-12.133 0-6.701 5.432-12.133 12.133-12.133h293.611c6.7 0 12.133 5.432 12.133 12.133 0 6.701-5.433 12.133-12.132 12.133zM366.408 177.137H249.934c-6.701 0-12.133-5.432-12.133-12.133s5.432-12.133 12.133-12.133h116.474c6.7 0 12.133 5.432 12.133 12.133s-5.434 12.133-12.133 12.133zM366.408 237.801H249.934c-6.701 0-12.133-5.432-12.133-12.133s5.432-12.133 12.133-12.133h116.474c6.7 0 12.133 5.432 12.133 12.133s-5.434 12.133-12.133 12.133zM366.408 298.464H249.934c-6.701 0-12.133-5.432-12.133-12.133 0-6.701 5.432-12.133 12.133-12.133h116.474c6.7 0 12.133 5.432 12.133 12.133-.001 6.702-5.434 12.133-12.133 12.133zM366.408 359.128H249.934c-6.701 0-12.133-5.432-12.133-12.133s5.432-12.133 12.133-12.133h116.474c6.7 0 12.133 5.432 12.133 12.133s-5.434 12.133-12.133 12.133zM189.27 359.128H72.796c-6.701 0-12.133-5.432-12.133-12.133s5.432-12.133 12.133-12.133H189.27c6.701 0 12.133 5.432 12.133 12.133s-5.432 12.133-12.133 12.133z"/></g><path fill="#4eb9ff" d="M72.796 165.005H189.27v122.54H72.796z"/></svg>