<svg xmlns="http://www.w3.org/2000/svg" viewBox="0 0 512 512"><path d="M437.333 0H74.667A10.66 10.66 0 0 0 64 10.667v42.667A10.66 10.66 0 0 0 74.667 64H224v43.51c-66.461 3.678-93.238 18.738-113.469 30.125l-3.833 2.156c-13.177 7.313-21.365 21.49-21.365 36.979v265.125c0 15.49 8.188 29.667 21.365 36.979l3.833 2.156C133.74 494.094 165.521 512 256 512s122.26-17.906 145.469-30.969l3.833-2.156c13.177-7.313 21.365-21.49 21.365-36.979V176.771c0-15.49-8.188-29.667-21.365-36.979l-3.833-2.156c-20.23-11.387-47.008-26.447-113.469-30.125V64h149.333A10.66 10.66 0 0 0 448 53.333V10.667A10.66 10.66 0 0 0 437.333 0z" fill="#303c42"/><path d="M394.948 158.438c6.406 3.563 10.385 10.583 10.385 18.333v265.125c0 7.75-3.979 14.771-10.385 18.333L391 462.438c-21.146 11.917-50.115 28.229-135 28.229s-113.854-16.313-135-28.229l-3.948-2.208c-6.406-3.563-10.385-10.583-10.385-18.333V176.771c0-7.75 3.979-14.771 10.385-18.333L121 156.23C142.146 144.313 171.115 128 256 128s113.854 16.313 135 28.229l3.948 2.209z" fill="#dfe1df"/><path d="M136.902 460.229c-5.492-3.563-8.902-10.583-8.902-18.333V176.771c0-7.75 3.41-14.771 8.902-18.333l3.383-2.208C158.41 144.313 183.241 128 256 128c-84.885 0-113.854 16.313-135 28.229l-3.948 2.208c-6.406 3.563-10.385 10.583-10.385 18.333v265.125c0 7.75 3.979 14.771 10.385 18.333l3.948 2.208c21.146 11.917 50.115 28.229 135 28.229-72.759 0-97.59-16.313-115.715-28.229l-3.383-2.207z" opacity=".2" fill="#fff"/><path d="M394.948 158.438L391 156.229C369.854 144.313 340.885 128 256 128c72.759 0 97.59 16.313 115.715 28.229l3.383 2.208C380.59 162 384 169.021 384 176.771v265.125c0 7.75-3.41 14.771-8.902 18.333l-3.383 2.208c-18.125 11.917-42.956 28.23-115.715 28.23 84.885 0 113.854-16.313 135-28.229l3.948-2.208c6.406-3.563 10.385-10.583 10.385-18.333V176.771c0-7.75-3.979-14.771-10.385-18.333z" opacity=".1"/><path d="M155.229 267.792a10.671 10.671 0 0 0-5.896 9.542v149.333c0 4.042 2.281 7.74 5.896 9.542C157.646 437.417 181 448 256.021 448s98.344-10.583 100.75-11.792a10.671 10.671 0 0 0 5.896-9.542V277.333c0-4.042-2.281-7.729-5.896-9.542C354.354 266.583 331.021 256 256 256s-98.354 10.583-100.771 11.792z" fill="#303c42"/><path d="M341.333 419c-10.438 2.813-35.646 7.667-85.313 7.667-49.771 0-75-4.875-85.354-7.656V285c10.448-2.813 35.656-7.667 85.333-7.667 49.771 0 74.99 4.875 85.333 7.656V419z" fill="#fafafa"/><path d="M256 277.333c37.328 0 56.242 4.875 64 7.656V419c-7.828 2.813-26.736 7.667-63.982 7.667h.003c49.667 0 74.875-4.854 85.313-7.667V284.99c-10.344-2.782-35.563-7.657-85.334-7.657z" opacity=".1"/><path d="M170.667 419.01c10.353 2.781 35.578 7.654 85.333 7.656-37.318-.003-56.236-4.875-64-7.656V285c7.836-2.813 26.742-7.667 64-7.667-49.677 0-74.885 4.854-85.333 7.667v134.01z" opacity=".2" fill="#fff"/><path d="M234.667 192c0 11.76 9.573 21.333 21.333 21.333 11.76 0 21.333-9.573 21.333-21.333 0-11.76-9.573-21.333-21.333-21.333-11.76 0-21.333 9.573-21.333 21.333z" fill="#ee3124"/><g fill="#dfe1df"><path d="M266.667 106.801c-3.51-.059-6.964-.134-10.667-.134s-7.156.076-10.667.134V64h21.333v42.801zM85.333 21.333h341.333v21.333H85.333z"/></g><linearGradient id="a" gradientUnits="userSpaceOnUse" x1="-46.115" y1="640.923" x2="-24.194" y2="630.701" gradientTransform="matrix(21.3333 0 0 -21.3333 996.333 13791.667)"><stop offset="0" stop-color="#fff" stop-opacity=".2"/><stop offset="1" stop-color="#fff" stop-opacity="0"/></linearGradient><path d="M437.333 0H74.667A10.66 10.66 0 0 0 64 10.667v42.667A10.66 10.66 0 0 0 74.667 64H224v43.51c-66.461 3.678-93.238 18.738-113.469 30.125l-3.833 2.156c-13.177 7.313-21.365 21.49-21.365 36.979v265.125c0 15.49 8.188 29.667 21.365 36.979l3.833 2.156C133.74 494.094 165.521 512 256 512s122.26-17.906 145.469-30.969l3.833-2.156c13.177-7.313 21.365-21.49 21.365-36.979V176.771c0-15.49-8.188-29.667-21.365-36.979l-3.833-2.156c-20.23-11.387-47.008-26.447-113.469-30.125V64h149.333A10.66 10.66 0 0 0 448 53.333V10.667A10.66 10.66 0 0 0 437.333 0z" fill="url(#a)"/></svg>