<svg xmlns="http://www.w3.org/2000/svg" viewBox="0 0 512.001 512.001"><path d="M88.277 150.069l40.907 171.811c1.889 7.954 9.004 13.568 17.178 13.568h219.277c8.174 0 15.289-5.614 17.178-13.568l40.907-171.811H88.277zm96.397 150.069H165.96a8.83 8.83 0 0 1-8.607-6.841l-22.404-97.103c-1.095-4.749 1.863-9.49 6.612-10.584a8.603 8.603 0 0 1 1.951-.23h33.695a8.82 8.82 0 0 1 8.828 8.148l7.468 97.103a8.817 8.817 0 0 1-8.829 9.507zm98.436-8.148a8.82 8.82 0 0 1-8.828 8.148h-36.59a8.82 8.82 0 0 1-8.828-8.148l-7.468-97.103a8.817 8.817 0 0 1 8.827-9.507h51.553c4.873-.018 8.836 3.928 8.854 8.801 0 .238-.009.468-.026.706l-7.494 97.103zm93.979-95.797l-22.404 97.103a8.833 8.833 0 0 1-8.642 6.841h-18.714c-4.873.018-8.836-3.928-8.854-8.801 0-.238.009-.468.026-.706l7.468-97.103a8.82 8.82 0 0 1 8.828-8.148h33.695c4.873 0 8.828 3.955 8.828 8.828a8.966 8.966 0 0 1-.231 1.986z" fill="#ffd33f"/><g fill="#ea3836"><path d="M2.322 19.721L15.82 134.479c1.05 8.889 8.58 15.59 17.532 15.59H478.65c8.951 0 16.481-6.7 17.532-15.59L509.679 19.72c1.139-9.684-5.782-18.458-15.466-19.597A18.103 18.103 0 0 0 492.148 0H19.854C10.1 0 2.199 7.91 2.199 17.655c0 .689.044 1.377.123 2.066zM256.001 512a157.556 157.556 0 0 1-112.172-46.468c-3.505-3.39-3.602-8.978-.221-12.482 3.39-3.505 8.978-3.602 12.482-.221.071.071.15.141.221.221 55.049 55.058 144.313 55.058 199.371.009l.009-.009c3.39-3.505 8.978-3.602 12.482-.212 3.505 3.39 3.602 8.978.212 12.482l-.212.212A157.556 157.556 0 0 1 256.001 512z"/><path d="M256.001 474.553a120.393 120.393 0 0 1-85.689-35.505c-3.505-3.39-3.602-8.978-.221-12.482 3.39-3.505 8.978-3.602 12.482-.221.071.071.15.141.221.221 40.457 40.369 105.958 40.369 146.414 0 3.39-3.505 8.978-3.602 12.482-.212 3.505 3.39 3.602 8.978.212 12.482l-.212.212a120.389 120.389 0 0 1-85.689 35.505z"/><path d="M256.001 437.054a83.436 83.436 0 0 1-59.207-24.488c-3.505-3.39-3.602-8.978-.221-12.482 3.39-3.505 8.978-3.602 12.482-.221.071.071.15.141.221.221 25.838 25.732 67.61 25.732 93.449 0 3.39-3.505 8.978-3.602 12.482-.212 3.505 3.39 3.602 8.978.212 12.482l-.212.212a83.432 83.432 0 0 1-59.206 24.488z"/><path d="M256.001 399.36a46.105 46.105 0 0 1-32.724-13.533c-3.39-3.505-3.293-9.092.221-12.482 3.425-3.302 8.845-3.302 12.262 0 11.185 11.158 29.299 11.158 40.483 0 3.505-3.39 9.092-3.293 12.482.212a8.837 8.837 0 0 1 0 12.27 46.12 46.12 0 0 1-32.724 13.533z"/></g><path d="M492.148 0h-35.893a436.77 436.77 0 0 1-249.3 150.069h271.687c8.951 0 16.49-6.7 17.54-15.59L509.679 19.72c1.139-9.684-5.782-18.458-15.466-19.597A18.103 18.103 0 0 0 492.148 0z" fill="#d62327"/><path d="M150.697 264.589l-15.784-68.396c-1.095-4.749 1.863-9.49 6.612-10.584a8.848 8.848 0 0 1 1.986-.23h33.695a8.82 8.82 0 0 1 8.828 8.148l3.381 43.944a448.005 448.005 0 0 1 33.836-19.191l-1.766-23.393a8.817 8.817 0 0 1 8.827-9.508h51.553a8.718 8.718 0 0 1 7.883 5.146 457.513 457.513 0 0 1 129.766-22.466l4.211-17.991H88.277l33.156 139.264a432.15 432.15 0 0 1 29.264-24.743z" fill="#ffac3e"/></svg>