<svg xmlns="http://www.w3.org/2000/svg" viewBox="0 0 512.001 512.001"><path d="M361.207 315.551h-210c-24.902 0-45 20.099-45 45v30c0 8.399 6.599 15 15 15h270c8.401 0 15-6.601 15-15v-30c0-24.9-20.098-45-45-45z" fill="#a4d9f5"/><g fill="#1bd9de"><path d="M483.159 308.066c-6.768-16.025-16.494-30.469-28.945-42.92-12.422-12.407-26.895-22.163-42.949-28.975-7.617-3.237-11.191-12.041-7.939-19.673 3.223-7.646 12.1-11.133 19.658-7.954 19.629 8.32 37.266 20.229 52.441 35.391 15.205 15.205 27.1 32.842 35.391 52.441 3.223 7.632-.352 16.436-7.998 19.658-7.637 3.231-16.432-.367-19.659-7.968zM427.875 331.386c-3.75-8.877-9.141-16.904-16.084-23.833-6.885-6.899-14.912-12.319-23.848-16.099-7.617-3.237-11.191-12.041-7.939-19.658 3.223-7.646 12.1-11.177 19.658-7.969a104.215 104.215 0 0 1 33.34 22.529c9.697 9.668 17.256 20.903 22.529 33.369 3.223 7.632-.352 16.436-7.998 19.658a15.014 15.014 0 0 1-19.658-7.997z"/></g><g fill="#1de8f1"><path d="M9.183 316.035c-7.646-3.223-11.221-12.026-7.998-19.658 8.291-19.6 20.186-37.236 35.391-52.441 15.176-15.161 32.812-27.07 52.441-35.391 7.588-3.179 16.465.308 19.658 7.954 3.252 7.632-.322 16.436-7.939 19.673-16.055 6.812-30.527 16.567-42.949 28.975-12.451 12.451-22.178 26.895-28.945 42.92-3.23 7.585-12.003 11.207-19.659 7.968zM64.466 339.384c-7.646-3.223-11.221-12.026-7.998-19.658 5.273-12.466 12.832-23.701 22.529-33.384a104.39 104.39 0 0 1 33.34-22.515c7.588-3.208 16.436.322 19.658 7.969 3.252 7.617-.322 16.421-7.939 19.658-8.936 3.779-16.963 9.199-23.848 16.084-6.943 6.943-12.334 14.971-16.084 23.848a15.035 15.035 0 0 1-19.658 7.998z"/></g><path d="M324.908 180.551l-54.902-126c-2.399-5.4-8.101-8.101-13.799-8.101s-11.4 2.701-13.799 8.101l-54.902 126c-4.197 9.6-6.299 19.799-6.299 30 0 41.4 33.6 75 75 75s75-33.6 75-75c0-10.2-2.102-20.399-6.299-30z" fill="#17ace8"/><path d="M256.207 285.551v-239.1c5.698 0 11.4 2.701 13.799 8.101l54.902 126c4.197 9.6 6.299 19.799 6.299 30 0 41.4-33.6 74.999-75 74.999z" fill="#1689fc"/><path d="M391.207 405.551h-135v-90h105c24.902 0 45 20.099 45 45v30c0 8.4-6.599 15-15 15z" fill="#81c8ee"/><path d="M464.705 443.951l-21.899-43.5c-7.5-15.298-23.101-24.899-40.199-24.899h-292.8c-17.098 0-32.699 9.6-40.199 24.899l-21.899 43.5c-4.801 9.901 2.399 21.601 13.499 21.601h390c11.098-.001 18.298-11.701 13.497-21.601z" fill="#cae8f9"/><path d="M451.207 465.551h-195v-90h146.4c17.098 0 32.699 9.6 40.199 24.899l21.899 43.5c4.801 9.901-2.399 21.601-13.498 21.601z" fill="#b7e0f6"/><path d="M512 450.551c0 8.399-6.599 15-15 15H15c-8.401 0-15-6.601-15-15 0-8.401 6.599-15 15-15h482c8.401 0 15 6.6 15 15z" fill="#787780"/><path d="M512 450.551c0 8.399-6.599 15-15 15H256.207v-30H497c8.401 0 15 6.6 15 15z" fill="#57555c"/></svg>