<svg xmlns="http://www.w3.org/2000/svg" viewBox="0 0 512 512"><path d="M52.966 70.621h406.069c9.751 0 17.655 7.904 17.655 17.655v335.448H35.31V88.276c0-9.751 7.905-17.655 17.656-17.655z" fill="#35495e"/><path d="M0 388.414h512v26.483c0 14.626-11.857 26.483-26.483 26.483H26.483C11.857 441.379 0 429.523 0 414.897v-26.483z" fill="#95a5a5"/><path d="M326.621 388.414v8.828c-.029 9.739-7.916 17.627-17.655 17.655H203.034c-9.739-.029-17.627-7.916-17.655-17.655v-8.828" fill="#bdc3c7"/><path d="M441.379 158.897v185.379a8.828 8.828 0 0 1-8.828 8.828h-291.31V158.897h300.138z" fill="#5e5f62"/><path d="M141.241 158.897v194.207H79.448a8.828 8.828 0 0 1-8.828-8.828V158.897h70.621z" fill="#a5a5a4"/><path d="M441.379 114.759v44.138H70.621v-44.138a8.828 8.828 0 0 1 8.828-8.828h353.103a8.827 8.827 0 0 1 8.827 8.828z" fill="#d1d4d1"/><path d="M97.103 141.241a8.865 8.865 0 0 1-6.268-15.095c.44-.353.879-.707 1.41-1.06.451-.35.958-.619 1.5-.797a5.616 5.616 0 0 1 1.591-.526 8.909 8.909 0 0 1 8.035 2.383 9.29 9.29 0 0 1 2.56 6.268c-.016.591-.075 1.18-.177 1.763a5.775 5.775 0 0 1-.53 1.591 6.735 6.735 0 0 1-.797 1.591c-.349.44-.703.879-1.056 1.323a9.298 9.298 0 0 1-6.268 2.559z" fill="#e64c3c"/><path d="M123.586 141.241a9.295 9.295 0 0 1-6.268-2.56c-.353-.444-.707-.884-1.06-1.323a6.697 6.697 0 0 1-.797-1.591 5.616 5.616 0 0 1-.526-1.591 11.586 11.586 0 0 1-.176-1.763 9.274 9.274 0 0 1 2.56-6.268 8.23 8.23 0 0 1 2.909-1.858 9.162 9.162 0 0 1 9.626 1.858 9.295 9.295 0 0 1 2.56 6.268c-.016.591-.075 1.18-.177 1.763a5.775 5.775 0 0 1-.53 1.591 6.735 6.735 0 0 1-.797 1.591 14.15 14.15 0 0 1-1.056 1.324c-.444.353-.884.707-1.323 1.056a6.697 6.697 0 0 1-1.591.797 5.753 5.753 0 0 1-1.591.53c-.582.101-1.172.16-1.763.176z" fill="#46b29d"/><path d="M150.069 141.241a8.743 8.743 0 0 1-8.124-12.185 10.18 10.18 0 0 1 1.857-2.91 9.24 9.24 0 0 1 12.534 0 10.25 10.25 0 0 1 1.854 2.909 8.832 8.832 0 0 1 .707 3.358 9.296 9.296 0 0 1-2.56 6.268 9.124 9.124 0 0 1-6.268 2.56z" fill="#f0c419"/><g fill="#d1d4d1"><path d="M105.931 194.207a8.865 8.865 0 0 1-6.268-15.095 8.899 8.899 0 0 1 8.03-2.383c.554.095 1.09.272 1.591.526a6.735 6.735 0 0 1 1.591.797c.44.353.879.707 1.323 1.06.38.418.733.86 1.056 1.323.334.491.603 1.025.797 1.586.253.501.432 1.037.53 1.591.097.585.157 1.175.177 1.767-.016.591-.075 1.18-.177 1.763a5.775 5.775 0 0 1-.53 1.591 6.735 6.735 0 0 1-.797 1.591 7.589 7.589 0 0 1-2.379 2.379 6.697 6.697 0 0 1-1.591.797 5.753 5.753 0 0 1-1.591.53c-.582.102-1.171.161-1.762.177zM105.931 229.517a8.865 8.865 0 0 1-6.268-15.095 8.899 8.899 0 0 1 8.03-2.383c.554.095 1.09.272 1.591.526a6.735 6.735 0 0 1 1.591.797c.462.327.904.681 1.324 1.06.38.418.733.86 1.056 1.323.334.491.603 1.025.797 1.586.253.501.432 1.037.53 1.591.102.584.161 1.175.176 1.768-.02.591-.079 1.18-.177 1.763a5.775 5.775 0 0 1-.53 1.591 6.735 6.735 0 0 1-.797 1.591 14.15 14.15 0 0 1-1.056 1.324 9.3 9.3 0 0 1-6.267 2.558zM105.931 264.828a8.849 8.849 0 1 1 6.268-15.095c.38.418.733.86 1.056 1.323.334.491.603 1.025.797 1.586.253.501.432 1.037.53 1.591.097.585.156 1.175.176 1.768-.016.591-.075 1.18-.177 1.763a5.775 5.775 0 0 1-.53 1.591 6.735 6.735 0 0 1-.797 1.591 14.15 14.15 0 0 1-1.056 1.324 9.309 9.309 0 0 1-6.267 2.558zM105.931 300.138a9.295 9.295 0 0 1-6.268-2.56 10.216 10.216 0 0 1-1.858-2.914 8.362 8.362 0 0 1 0-6.711 9.063 9.063 0 0 1 1.858-2.91 9.24 9.24 0 0 1 12.534 0 10.25 10.25 0 0 1 1.854 2.909 7.405 7.405 0 0 1 .707 3.358 8.743 8.743 0 0 1-8.827 8.828zM105.931 335.448a8.865 8.865 0 0 1-6.268-15.095 8.899 8.899 0 0 1 8.03-2.383c.554.095 1.09.272 1.591.526a6.735 6.735 0 0 1 1.591.797c.44.353.879.707 1.323 1.06a9.29 9.29 0 0 1 2.561 6.267c-.016.591-.075 1.18-.177 1.763a5.775 5.775 0 0 1-.53 1.591 6.735 6.735 0 0 1-.797 1.591 14.15 14.15 0 0 1-1.056 1.324 9.3 9.3 0 0 1-6.268 2.559z"/></g><path d="M203.034 194.207h-26.483a8.828 8.828 0 0 1 0-17.656h26.483a8.828 8.828 0 0 1 0 17.656z" fill="#d75e72"/><path d="M264.828 194.207h-26.483a8.828 8.828 0 0 1 0-17.656h26.483a8.828 8.828 0 0 1 0 17.656z" fill="#f29c1f"/><g fill="#ecf0f1"><path d="M317.793 194.207h-17.655a8.828 8.828 0 0 1 0-17.656h17.655a8.828 8.828 0 0 1 0 17.656zM379.586 194.207h-26.483a8.828 8.828 0 0 1 0-17.656h26.483a8.828 8.828 0 0 1 0 17.656z"/></g><path d="M203.034 264.828h-26.483a8.828 8.828 0 0 1 0-17.656h26.483a8.828 8.828 0 0 1 0 17.656z" fill="#d75e72"/><path d="M264.828 264.828h-26.483a8.828 8.828 0 0 1 0-17.656h26.483a8.828 8.828 0 0 1 0 17.656z" fill="#f29c1f"/><g fill="#ecf0f1"><path d="M317.793 264.828h-17.655a8.828 8.828 0 0 1 0-17.656h17.655a8.828 8.828 0 0 1 0 17.656zM379.586 264.828h-26.483a8.828 8.828 0 0 1 0-17.656h26.483a8.828 8.828 0 0 1 0 17.656z"/></g><path d="M203.034 335.448h-26.483a8.828 8.828 0 0 1 0-17.656h26.483a8.828 8.828 0 0 1 0 17.656z" fill="#d75e72"/><path d="M264.828 335.448h-26.483a8.828 8.828 0 0 1 0-17.656h26.483a8.828 8.828 0 0 1 0 17.656z" fill="#f29c1f"/><g fill="#ecf0f1"><path d="M317.793 335.448h-17.655a8.828 8.828 0 0 1 0-17.656h17.655a8.828 8.828 0 0 1 0 17.656zM379.586 335.448h-26.483a8.828 8.828 0 0 1 0-17.656h26.483a8.828 8.828 0 0 1 0 17.656z"/></g><g fill="#f29c1f"><path d="M229.517 229.517h-26.483a8.828 8.828 0 0 1 0-17.656h26.483a8.828 8.828 0 0 1 0 17.656zM291.31 229.517h-26.483a8.828 8.828 0 0 1 0-17.656h26.483a8.828 8.828 0 0 1 0 17.656z"/></g><g fill="#ecf0f1"><path d="M344.276 229.517h-17.655a8.828 8.828 0 0 1 0-17.656h17.655a8.828 8.828 0 0 1 0 17.656zM406.069 229.517h-26.483a8.828 8.828 0 0 1 0-17.656h26.483a8.828 8.828 0 0 1 0 17.656z"/></g><g fill="#f29c1f"><path d="M229.517 300.138h-26.483a8.828 8.828 0 0 1 0-17.656h26.483a8.828 8.828 0 0 1 0 17.656zM291.31 300.138h-26.483a8.828 8.828 0 0 1 0-17.656h26.483a8.828 8.828 0 0 1 0 17.656z"/></g><g fill="#ecf0f1"><path d="M344.276 300.138h-17.655a8.828 8.828 0 0 1 0-17.656h17.655a8.828 8.828 0 0 1 0 17.656zM406.069 300.138h-26.483a8.828 8.828 0 0 1 0-17.656h26.483a8.828 8.828 0 0 1 0 17.656z"/></g></svg>