<svg xmlns="http://www.w3.org/2000/svg" viewBox="0 0 512 512"><path d="M384.377 236.89L83.088 504.212c-12.232 10.853-30.801 10.299-42.365-1.264L9.052 471.277c-11.563-11.563-12.117-30.133-1.264-42.365L275.11 127.623 384.377 236.89z" fill="#596775"/><path d="M367.957 220.471L71.955 483.101c-1.45 1.287-3.108 2.352-4.951 2.951-4.944 1.607-10.156.239-13.635-3.241l-27.926-27.925c-6.877-6.876-16.995-8.514-25.432-4.943.131 7.753 3.158 15.45 9.041 21.333l31.671 31.671c11.563 11.563 30.133 12.117 42.365 1.264L384.376 236.89l-16.419-16.419z" fill="#4d5967"/><path d="M512 122.849C512 55.001 456.998 0 389.15 0S266.301 55.001 266.301 122.849c0 4.674.27 9.285.779 13.823l108.247 108.247c4.539.508 9.149.779 13.823.779 67.848 0 122.85-55.001 122.85-122.849z" fill="#e9e3d5"/><path d="M512 122.849c0-47.818-27.321-89.252-67.205-109.549 8.503 16.706 13.3 35.614 13.3 55.644 0 67.848-55.001 122.849-122.849 122.849-4.675 0-9.286-.272-13.825-.781l53.908 53.907c4.538.508 9.148.778 13.822.778 67.847.001 122.849-55 122.849-122.848z" fill="#d3cdbf"/><path d="M494.198 191.502L320.501 17.807a7.727 7.727 0 0 0-10.927 0L287.721 39.66a7.729 7.729 0 0 0 0 10.926l173.696 173.696a7.727 7.727 0 0 0 10.927 0l21.853-21.853a7.73 7.73 0 0 0 .001-10.927z" fill="#b6b0a2"/><path d="M320.501 17.807a7.727 7.727 0 0 0-10.927 0l-10.926 10.926 151.844 151.843c9.052 9.052 9.052 23.728 0 32.78l10.926 10.926a7.727 7.727 0 0 0 10.927 0l21.853-21.853a7.726 7.726 0 0 0 0-10.926L320.501 17.807z" fill="#a19b8d"/><path d="M235.552 299.626a23.105 23.105 0 0 1-16.39-6.789c-9.051-9.052-9.051-23.728 0-32.779l40.893-40.893c9.052-9.052 23.728-9.052 32.78 0 9.051 9.052 9.051 23.728 0 32.779l-40.893 40.893a23.105 23.105 0 0 1-16.39 6.789z" fill="#35404a"/><path d="M375.288 252.608a7.703 7.703 0 0 1-5.464-2.263l-108.169-108.17a7.726 7.726 0 1 1 10.927-10.926l108.169 108.169a7.726 7.726 0 0 1-5.463 13.19z" fill="#4d5967"/></svg>