<svg xmlns="http://www.w3.org/2000/svg" viewBox="0 0 512 512"><g fill="#9ea7af"><path d="M56.12 463.255H5.151c-2.833 0-5.151 2.317-5.151 5.15v34.413h56.12v-39.563zM506.849 463.255H455.88v39.563H512v-34.413c0-2.833-2.318-5.15-5.151-5.15z"/></g><path d="M36.571 463.255H5.151c-2.833 0-5.151 2.317-5.151 5.15v34.413h31.42v-34.413c0-2.833 2.318-5.15 5.151-5.15z" fill="#00003f" opacity=".1"/><path fill="#9ea7af" d="M180.06 396h151.89v40.631H180.06z"/><path d="M55.12 502.818V440.6c0-2.833 2.318-5.151 5.151-5.151H451.73c2.833 0 5.151 2.318 5.151 5.151v62.218H55.12z" fill="#c5ccd3"/><path d="M92.211 435.449h-31.94c-2.833 0-5.151 2.318-5.151 5.151v62.218h31.941V440.6c0-2.833 2.317-5.151 5.15-5.151z" fill="#00003f" opacity=".1"/><path d="M99.371 86.082a24 24 0 0 1-7.5-1.2V138h15V84.882a24.005 24.005 0 0 1-7.5 1.2z" fill="#9ea7af"/><circle cx="99.37" cy="63.16" r="24.04" fill="#fb8276"/><path d="M412.629 86.082a24 24 0 0 1-7.5-1.2V138h15V84.882c-2.36.775-4.88 1.2-7.5 1.2z" fill="#9ea7af"/><circle cx="412.63" cy="63.16" r="24.04" fill="#fb8276"/><g fill="#9ea7af"><path d="M47.545 202.723H10.302C4.636 202.723 0 207.359 0 213.025v108.008c0 5.666 4.636 10.302 10.302 10.302h37.244l-.001-128.612zM501.698 202.723h-37.244v128.612h37.244c5.666 0 10.302-4.636 10.302-10.302V213.025c0-5.666-4.636-10.302-10.302-10.302z"/></g><path d="M21.119 321.033V213.025c0-5.666 4.636-10.302 10.302-10.302H10.302C4.636 202.723 0 207.359 0 213.025v108.008c0 5.666 4.636 10.302 10.302 10.302H31.42c-5.666 0-10.301-4.636-10.301-10.302z" fill="#00003f" opacity=".1"/><path d="M61.998 136.579c-8.499 0-15.453 6.954-15.453 15.453v229.994c0 8.499 6.954 15.453 15.453 15.453h388.004c8.499 0 15.453-6.954 15.453-15.453V152.032c0-8.499-6.954-15.453-15.453-15.453H61.998z" fill="#c5ccd3"/><path d="M71.27 382.026V152.032c0-8.499 6.954-15.453 15.453-15.453H61.998c-8.499 0-15.453 6.954-15.453 15.453v229.994c0 8.499 6.954 15.453 15.453 15.453h24.724c-8.499-.001-15.452-6.954-15.452-15.453z" fill="#00003f" opacity=".1"/><path d="M88.443 360.732c-2.833 0-5.151-2.318-5.151-5.151V178.476c0-2.833 2.318-5.151 5.151-5.151h335.114c2.833 0 5.151 2.318 5.151 5.151v177.105c0 2.833-2.318 5.151-5.151 5.151H88.443z" fill="#004777"/><path d="M115.589 355.581V178.476c0-2.833 2.318-5.151 5.151-5.151H88.443c-2.833 0-5.151 2.318-5.151 5.151v177.105c0 2.833 2.318 5.151 5.151 5.151h32.297c-2.833 0-5.151-2.318-5.151-5.151z" fill="#00003f" opacity=".1"/><path d="M200.154 173.326l11.461 22.796c.764 1.518 2.779 2.761 4.479 2.761h79.811c1.7 0 3.715-1.242 4.479-2.761l11.461-22.796H200.154z" fill="#fcdb67"/><g fill="#33c7ca"><path d="M170.259 271.899a3.1 3.1 0 0 1-3.091 3.091h-25.666a3.1 3.1 0 0 1-3.09-3.091v-47.714a3.1 3.1 0 0 1 3.09-3.09h25.666a3.1 3.1 0 0 1 3.091 3.09v47.714zM373.588 271.899a3.1 3.1 0 0 1-3.09 3.091h-25.666a3.1 3.1 0 0 1-3.091-3.091v-47.714a3.1 3.1 0 0 1 3.091-3.09h25.666a3.1 3.1 0 0 1 3.09 3.09v47.714zM311.12 314.005a3.1 3.1 0 0 1-3.09 3.09H203.971a3.1 3.1 0 0 1-3.09-3.09v-21.686a3.1 3.1 0 0 1 3.09-3.09H308.03a3.1 3.1 0 0 1 3.09 3.09v21.686zM267.964 93.737c-2.102 0-4.877-.735-7.563-3.677l-32.668-35.799v8.492c0 6.976-5.675 12.651-12.651 12.651h-54.46a7.5 7.5 0 0 1 0-15h52.111V40.065c0-6.737 4.446-8.985 5.809-9.513 1.362-.527 6.162-1.865 10.703 3.112l32.667 35.799V19.242c0-6.774 4.472-8.998 5.842-9.518 1.371-.519 6.191-1.824 10.686 3.246l31.171 35.174c.514.544 2.207 1.306 2.963 1.33h38.803a7.5 7.5 0 0 1 0 15h-38.812c-4.94 0-10.904-2.684-14.181-6.382l-21.473-24.23v49.796c0 6.737-4.446 8.984-5.809 9.513a8.85 8.85 0 0 1-3.138.566z"/></g><path d="M337.13 477.244c-1.97 0-3.91-.8-5.3-2.19a7.55 7.55 0 0 1-2.2-5.31c0-1.97.8-3.9 2.2-5.3 1.39-1.4 3.33-2.2 5.3-2.2a7.51 7.51 0 0 1 7.5 7.5c0 1.98-.8 3.91-2.2 5.31a7.547 7.547 0 0 1-5.3 2.19z" fill="#368c0e"/><path d="M376.65 477.244c-1.97 0-3.91-.8-5.3-2.19a7.55 7.55 0 0 1-2.2-5.31c0-1.97.8-3.91 2.2-5.3 1.39-1.4 3.33-2.2 5.3-2.2a7.51 7.51 0 0 1 7.5 7.5c0 1.98-.8 3.91-2.2 5.31a7.547 7.547 0 0 1-5.3 2.19z" fill="#c0272d"/><g fill="#33c7ca"><path d="M416.17 477.244c-1.97 0-3.91-.8-5.3-2.19a7.55 7.55 0 0 1-2.2-5.31c0-1.97.8-3.9 2.2-5.3 1.39-1.4 3.33-2.2 5.3-2.2s3.91.8 5.3 2.2c1.4 1.4 2.2 3.33 2.2 5.3 0 1.98-.8 3.91-2.2 5.31a7.565 7.565 0 0 1-5.3 2.19zM159.524 477.246H95.83a7.5 7.5 0 0 1 0-15h63.694a7.5 7.5 0 0 1 0 15z"/></g></svg>